# Blender 4.4.3
# www.blender.org
mtllib Cylinder.mtl
o ì‹¤ë¦°ë”
v 0.000000 -1.000000 -0.500000
v 0.000000 -1.000000 -0.499500
v 0.000000 1.000000 -0.500000
v 0.000000 1.000000 -0.499500
v 0.097545 -1.000000 -0.490393
v 0.097448 -1.000000 -0.489902
v 0.097545 1.000000 -0.490393
v 0.097448 1.000000 -0.489902
v 0.191342 -1.000000 -0.461940
v 0.191150 -1.000000 -0.461478
v 0.191342 1.000000 -0.461940
v 0.191150 1.000000 -0.461478
v 0.277785 -1.000000 -0.415735
v 0.277507 -1.000000 -0.415319
v 0.277785 1.000000 -0.415735
v 0.277507 1.000000 -0.415319
v 0.353553 -1.000000 -0.353553
v 0.353200 -1.000000 -0.353200
v 0.353553 1.000000 -0.353553
v 0.353200 1.000000 -0.353200
v 0.415735 -1.000000 -0.277785
v 0.415319 -1.000000 -0.277507
v 0.415735 1.000000 -0.277785
v 0.415319 1.000000 -0.277507
v 0.461940 -1.000000 -0.191342
v 0.461478 -1.000000 -0.191150
v 0.461940 1.000000 -0.191342
v 0.461478 1.000000 -0.191150
v 0.489902 -1.000000 -0.097448
v 0.490393 -1.000000 -0.097545
v 0.490393 1.000000 -0.097545
v 0.489902 1.000000 -0.097448
v 0.500000 -1.000000 0.000000
v 0.499500 -1.000000 0.000000
v 0.500000 1.000000 0.000000
v 0.499500 1.000000 0.000000
v 0.489902 -1.000000 0.097448
v 0.490393 -1.000000 0.097545
v 0.490393 1.000000 0.097545
v 0.489902 1.000000 0.097448
v 0.461940 -1.000000 0.191342
v 0.461478 -1.000000 0.191150
v 0.461940 1.000000 0.191342
v 0.461478 1.000000 0.191150
v 0.415735 -1.000000 0.277785
v 0.415319 -1.000000 0.277507
v 0.415319 1.000000 0.277507
v 0.415735 1.000000 0.277785
v 0.353200 -1.000000 0.353200
v 0.353553 -1.000000 0.353553
v 0.353200 1.000000 0.353200
v 0.353553 1.000000 0.353553
v 0.277785 -1.000000 0.415735
v 0.277507 -1.000000 0.415319
v 0.277507 1.000000 0.415319
v 0.277785 1.000000 0.415735
v 0.191342 -1.000000 0.461940
v 0.191150 -1.000000 0.461478
v 0.191150 1.000000 0.461478
v 0.191342 1.000000 0.461940
v 0.097545 -1.000000 0.490393
v 0.097448 -1.000000 0.489902
v 0.097448 1.000000 0.489902
v 0.097545 1.000000 0.490393
v 0.000000 -1.000000 0.499500
v 0.000000 -1.000000 0.500000
v 0.000000 1.000000 0.499500
v 0.000000 1.000000 0.500000
v -0.097448 -1.000000 0.489902
v -0.097545 -1.000000 0.490393
v -0.097545 1.000000 0.490393
v -0.097448 1.000000 0.489902
v -0.191150 -1.000000 0.461478
v -0.191342 -1.000000 0.461940
v -0.191150 1.000000 0.461478
v -0.191342 1.000000 0.461940
v -0.277507 -1.000000 0.415319
v -0.277785 -1.000000 0.415735
v -0.277507 1.000000 0.415319
v -0.277785 1.000000 0.415735
v -0.353553 -1.000000 0.353553
v -0.353200 -1.000000 0.353200
v -0.353553 1.000000 0.353553
v -0.353200 1.000000 0.353200
v -0.415735 -1.000000 0.277785
v -0.415319 -1.000000 0.277507
v -0.415319 1.000000 0.277507
v -0.415735 1.000000 0.277785
v -0.461940 -1.000000 0.191342
v -0.461478 -1.000000 0.191150
v -0.461478 1.000000 0.191150
v -0.461940 1.000000 0.191342
v -0.489902 -1.000000 0.097448
v -0.490393 -1.000000 0.097545
v -0.490393 1.000000 0.097545
v -0.489902 1.000000 0.097448
v -0.499500 -1.000000 0.000000
v -0.500000 -1.000000 0.000000
v -0.499500 1.000000 0.000000
v -0.500000 1.000000 0.000000
v -0.489902 -1.000000 -0.097448
v -0.490393 -1.000000 -0.097545
v -0.489902 1.000000 -0.097448
v -0.490393 1.000000 -0.097545
v -0.461478 -1.000000 -0.191150
v -0.461940 -1.000000 -0.191342
v -0.461478 1.000000 -0.191150
v -0.461940 1.000000 -0.191342
v -0.415319 -1.000000 -0.277507
v -0.415735 -1.000000 -0.277785
v -0.415319 1.000000 -0.277507
v -0.415735 1.000000 -0.277785
v -0.353200 -1.000000 -0.353200
v -0.353553 -1.000000 -0.353553
v -0.353200 1.000000 -0.353200
v -0.353553 1.000000 -0.353553
v -0.277785 -1.000000 -0.415735
v -0.277507 -1.000000 -0.415319
v -0.277785 1.000000 -0.415735
v -0.277507 1.000000 -0.415319
v -0.191342 -1.000000 -0.461940
v -0.191150 -1.000000 -0.461478
v -0.191342 1.000000 -0.461940
v -0.191150 1.000000 -0.461478
v -0.097448 -1.000000 -0.489902
v -0.097545 -1.000000 -0.490393
v -0.097545 1.000000 -0.490393
v -0.097448 1.000000 -0.489902
vn 0.0980 -0.0000 -0.9952
vn 0.2903 -0.0000 -0.9569
vn 0.4714 -0.0000 -0.8819
vn 0.6344 -0.0000 -0.7730
vn 0.7730 -0.0000 -0.6344
vn 0.8819 -0.0000 -0.4714
vn 0.9569 -0.0000 -0.2903
vn 0.9952 -0.0000 -0.0980
vn 0.9952 -0.0000 0.0980
vn 0.9569 -0.0000 0.2903
vn 0.8819 -0.0000 0.4714
vn 0.7730 -0.0000 0.6344
vn 0.6344 -0.0000 0.7730
vn 0.4714 -0.0000 0.8819
vn 0.2903 -0.0000 0.9569
vn 0.0980 -0.0000 0.9952
vn -0.0980 -0.0000 0.9952
vn -0.2903 -0.0000 0.9569
vn -0.4714 -0.0000 0.8819
vn -0.6344 -0.0000 0.7730
vn -0.7730 -0.0000 0.6344
vn -0.8819 -0.0000 0.4714
vn -0.9569 -0.0000 0.2903
vn -0.9952 -0.0000 0.0980
vn -0.9952 -0.0000 -0.0980
vn -0.9569 -0.0000 -0.2903
vn -0.8819 -0.0000 -0.4714
vn -0.7730 -0.0000 -0.6344
vn -0.6344 -0.0000 -0.7730
vn -0.4714 -0.0000 -0.8819
vn -0.0003 1.0000 -0.0000
vn -0.0000 1.0000 -0.0000
vn -0.2903 -0.0000 -0.9569
vn -0.0980 -0.0000 -0.9952
vn -0.0001 -1.0000 -0.0000
vn 0.0001 -1.0000 -0.0000
vt 1.000000 0.500000
vt 1.000000 1.000000
vt 0.968750 1.000000
vt 0.968750 0.500000
vt 0.937500 1.000000
vt 0.937500 0.500000
vt 0.906250 1.000000
vt 0.906250 0.500000
vt 0.875000 1.000000
vt 0.875000 0.500000
vt 0.843750 1.000000
vt 0.843750 0.500000
vt 0.812500 1.000000
vt 0.812500 0.500000
vt 0.781250 1.000000
vt 0.781250 0.500000
vt 0.750000 1.000000
vt 0.750000 0.500000
vt 0.718750 1.000000
vt 0.718750 0.500000
vt 0.687500 1.000000
vt 0.687500 0.500000
vt 0.656250 1.000000
vt 0.656250 0.500000
vt 0.625000 1.000000
vt 0.625000 0.500000
vt 0.593750 1.000000
vt 0.593750 0.500000
vt 0.562500 1.000000
vt 0.562500 0.500000
vt 0.531250 1.000000
vt 0.531250 0.500000
vt 0.500000 1.000000
vt 0.500000 0.500000
vt 0.468750 1.000000
vt 0.468750 0.500000
vt 0.437500 1.000000
vt 0.437500 0.500000
vt 0.406250 1.000000
vt 0.406250 0.500000
vt 0.375000 1.000000
vt 0.375000 0.500000
vt 0.343750 1.000000
vt 0.343750 0.500000
vt 0.312500 1.000000
vt 0.312500 0.500000
vt 0.281250 1.000000
vt 0.281250 0.500000
vt 0.250000 1.000000
vt 0.250000 0.500000
vt 0.218750 1.000000
vt 0.218750 0.500000
vt 0.187500 1.000000
vt 0.187500 0.500000
vt 0.156250 1.000000
vt 0.156250 0.500000
vt 0.125000 1.000000
vt 0.125000 0.500000
vt 0.093750 1.000000
vt 0.093750 0.500000
vt 0.062500 1.000000
vt 0.062500 0.500000
vt 0.080294 0.419706
vt 0.050447 0.383337
vt 0.028269 0.341844
vt 0.014612 0.296822
vt 0.010000 0.250000
vt 0.014612 0.203178
vt 0.028269 0.158156
vt 0.050447 0.116663
vt 0.080294 0.080294
vt 0.080464 0.080464
vt 0.050647 0.116797
vt 0.028491 0.158248
vt 0.014847 0.203225
vt 0.010240 0.250000
vt 0.014847 0.296775
vt 0.028491 0.341752
vt 0.050647 0.383204
vt 0.080464 0.419536
vt 0.116663 0.050447
vt 0.158156 0.028269
vt 0.203178 0.014612
vt 0.250000 0.010000
vt 0.296822 0.014612
vt 0.341844 0.028269
vt 0.383337 0.050447
vt 0.419706 0.080294
vt 0.449553 0.116663
vt 0.471731 0.158156
vt 0.485388 0.203178
vt 0.490000 0.250000
vt 0.485388 0.296822
vt 0.471731 0.341844
vt 0.449553 0.383337
vt 0.419706 0.419706
vt 0.383337 0.449553
vt 0.341844 0.471731
vt 0.296822 0.485388
vt 0.250000 0.490000
vt 0.203178 0.485388
vt 0.158156 0.471731
vt 0.116663 0.449553
vt 0.116797 0.449353
vt 0.158248 0.471510
vt 0.203225 0.485153
vt 0.250000 0.489760
vt 0.296775 0.485153
vt 0.341752 0.471510
vt 0.383204 0.449353
vt 0.419536 0.419536
vt 0.449353 0.383204
vt 0.471509 0.341752
vt 0.485153 0.296775
vt 0.489760 0.250000
vt 0.485153 0.203225
vt 0.471509 0.158248
vt 0.449353 0.116796
vt 0.419536 0.080464
vt 0.383204 0.050647
vt 0.341752 0.028491
vt 0.296775 0.014847
vt 0.250000 0.010240
vt 0.203225 0.014847
vt 0.158248 0.028491
vt 0.116797 0.050647
vt 0.031250 1.000000
vt 0.031250 0.500000
vt 0.000000 1.000000
vt 0.000000 0.500000
vt 0.919536 0.080464
vt 0.919706 0.080294
vt 0.883337 0.050447
vt 0.841844 0.028269
vt 0.796822 0.014612
vt 0.750000 0.010000
vt 0.703178 0.014612
vt 0.658156 0.028269
vt 0.616663 0.050447
vt 0.580294 0.080294
vt 0.550447 0.116663
vt 0.528269 0.158156
vt 0.514612 0.203178
vt 0.510000 0.250000
vt 0.514612 0.296822
vt 0.528269 0.341844
vt 0.550447 0.383337
vt 0.580294 0.419706
vt 0.580464 0.419536
vt 0.550647 0.383204
vt 0.528491 0.341752
vt 0.514847 0.296775
vt 0.510240 0.250000
vt 0.514847 0.203225
vt 0.528491 0.158248
vt 0.550647 0.116796
vt 0.580464 0.080464
vt 0.616797 0.050647
vt 0.658248 0.028491
vt 0.703225 0.014847
vt 0.750000 0.010240
vt 0.796775 0.014847
vt 0.841752 0.028491
vt 0.883204 0.050647
vt 0.616663 0.449553
vt 0.658156 0.471731
vt 0.703178 0.485388
vt 0.750000 0.490000
vt 0.796822 0.485388
vt 0.841844 0.471731
vt 0.883337 0.449553
vt 0.919706 0.419706
vt 0.949553 0.383337
vt 0.971731 0.341844
vt 0.985388 0.296822
vt 0.990000 0.250000
vt 0.985388 0.203178
vt 0.971731 0.158156
vt 0.949553 0.116663
vt 0.949354 0.116797
vt 0.971510 0.158248
vt 0.985153 0.203225
vt 0.989761 0.250000
vt 0.985153 0.296775
vt 0.971510 0.341752
vt 0.949354 0.383204
vt 0.919536 0.419536
vt 0.883204 0.449353
vt 0.841753 0.471510
vt 0.796775 0.485153
vt 0.750000 0.489760
vt 0.703225 0.485153
vt 0.658248 0.471509
vt 0.616797 0.449353
s 0
f 1/1/1 3/2/1 7/3/1 5/4/1
f 5/4/2 7/3/2 11/5/2 9/6/2
f 9/6/3 11/5/3 15/7/3 13/8/3
f 13/8/4 15/7/4 19/9/4 17/10/4
f 17/10/5 19/9/5 23/11/5 21/12/5
f 21/12/6 23/11/6 27/13/6 25/14/6
f 25/14/7 27/13/7 31/15/7 30/16/7
f 30/16/8 31/15/8 35/17/8 33/18/8
f 33/18/9 35/17/9 39/19/9 38/20/9
f 38/20/10 39/19/10 43/21/10 41/22/10
f 41/22/11 43/21/11 48/23/11 45/24/11
f 45/24/12 48/23/12 52/25/12 50/26/12
f 50/26/13 52/25/13 56/27/13 53/28/13
f 53/28/14 56/27/14 60/29/14 57/30/14
f 57/30/15 60/29/15 64/31/15 61/32/15
f 61/32/16 64/31/16 68/33/16 66/34/16
f 66/34/17 68/33/17 71/35/17 70/36/17
f 70/36/18 71/35/18 76/37/18 74/38/18
f 74/38/19 76/37/19 80/39/19 78/40/19
f 78/40/20 80/39/20 83/41/20 81/42/20
f 81/42/21 83/41/21 88/43/21 85/44/21
f 85/44/22 88/43/22 92/45/22 89/46/22
f 89/46/23 92/45/23 95/47/23 94/48/23
f 94/48/24 95/47/24 100/49/24 98/50/24
f 98/50/25 100/49/25 104/51/25 102/52/25
f 102/52/26 104/51/26 108/53/26 106/54/26
f 106/54/27 108/53/27 112/55/27 110/56/27
f 110/56/28 112/55/28 116/57/28 114/58/28
f 114/58/29 116/57/29 119/59/29 117/60/29
f 117/60/30 119/59/30 123/61/30 121/62/30
f 116/63/31 112/64/31 108/65/31 104/66/31 100/67/31 95/68/31 92/69/31 88/70/31 83/71/31 84/72/31 87/73/31 91/74/31 96/75/31 99/76/31 103/77/31 107/78/31 111/79/31 115/80/31
f 84/72/32 83/71/32 80/81/32 76/82/32 71/83/32 68/84/32 64/85/32 60/86/32 56/87/32 52/88/32 48/89/32 43/90/32 39/91/32 35/92/32 31/93/32 27/94/32 23/95/32 19/96/32 15/97/32 11/98/32 7/99/32 3/100/32 127/101/32 123/102/32 119/103/32 116/63/32 115/80/32 120/104/32 124/105/32 128/106/32 4/107/32 8/108/32 12/109/32 16/110/32 20/111/32 24/112/32 28/113/32 32/114/32 36/115/32 40/116/32 44/117/32 47/118/32 51/119/32 55/120/32 59/121/32 63/122/32 67/123/32 72/124/32 75/125/32 79/126/32
f 121/62/33 123/61/33 127/127/33 126/128/33
f 126/128/34 127/127/34 3/129/34 1/130/34
f 49/131/35 50/132/35 53/133/35 57/134/35 61/135/35 66/136/35 70/137/35 74/138/35 78/139/35 81/140/35 85/141/35 89/142/35 94/143/35 98/144/35 102/145/35 106/146/35 110/147/35 114/148/35 113/149/35 109/150/35 105/151/35 101/152/35 97/153/35 93/154/35 90/155/35 86/156/35 82/157/35 77/158/35 73/159/35 69/160/35 65/161/35 62/162/35 58/163/35 54/164/35
f 113/149/36 114/148/36 117/165/36 121/166/36 126/167/36 1/168/36 5/169/36 9/170/36 13/171/36 17/172/36 21/173/36 25/174/36 30/175/36 33/176/36 38/177/36 41/178/36 45/179/36 50/132/36 49/131/36 46/180/36 42/181/36 37/182/36 34/183/36 29/184/36 26/185/36 22/186/36 18/187/36 14/188/36 10/189/36 6/190/36 2/191/36 125/192/36 122/193/36 118/194/36
f 4/2/17 2/1/17 6/4/17 8/3/17
f 10/6/18 12/5/18 8/3/18 6/4/18
f 12/5/19 10/6/19 14/8/19 16/7/19
f 18/10/20 20/9/20 16/7/20 14/8/20
f 18/10/21 22/12/21 24/11/21 20/9/21
f 28/13/22 24/11/22 22/12/22 26/14/22
f 32/15/23 28/13/23 26/14/23 29/16/23
f 36/17/24 32/15/24 29/16/24 34/18/24
f 34/18/25 37/20/25 40/19/25 36/17/25
f 44/21/26 40/19/26 37/20/26 42/22/26
f 44/21/27 42/22/27 46/24/27 47/23/27
f 51/25/28 47/23/28 46/24/28 49/26/28
f 49/26/29 54/28/29 55/27/29 51/25/29
f 59/29/30 55/27/30 54/28/30 58/30/30
f 63/31/33 59/29/33 58/30/33 62/32/33
f 67/33/34 63/31/34 62/32/34 65/34/34
f 65/34/1 69/36/1 72/35/1 67/33/1
f 75/37/2 72/35/2 69/36/2 73/38/2
f 73/38/3 77/40/3 79/39/3 75/37/3
f 84/41/4 79/39/4 77/40/4 82/42/4
f 84/41/5 82/42/5 86/44/5 87/43/5
f 90/46/6 91/45/6 87/43/6 86/44/6
f 93/48/7 96/47/7 91/45/7 90/46/7
f 97/50/8 99/49/8 96/47/8 93/48/8
f 99/49/9 97/50/9 101/52/9 103/51/9
f 105/54/10 107/53/10 103/51/10 101/52/10
f 107/53/11 105/54/11 109/56/11 111/55/11
f 113/58/12 115/57/12 111/55/12 109/56/12
f 115/57/13 113/58/13 118/60/13 120/59/13
f 122/62/14 124/61/14 120/59/14 118/60/14
f 125/128/15 128/127/15 124/61/15 122/62/15
f 2/130/16 4/129/16 128/127/16 125/128/16
